<svg viewBox="0 0 24 24" xmlns="http://www.w3.org/2000/svg"><path d="m0 0h24v24h-24z" fill="#fff" opacity="0" transform="matrix(-1 0 0 -1 24 24)"/><g fill="#231f20"><path d="m6.63 11.61 5.37-4.32 5.37 4.48a1 1 0 0 0 .63.23 1 1 0 0 0 .77-.36 1 1 0 0 0 -.13-1.41l-6-5a1 1 0 0 0 -1.27 0l-6 4.83a1 1 0 0 0 -.15 1.41 1 1 0 0 0 1.41.14z"/><path d="m12.64 12.23a1 1 0 0 0 -1.27 0l-6 4.83a1 1 0 0 0 -.15 1.41 1 1 0 0 0 1.41.15l5.37-4.33 5.37 4.48a1 1 0 0 0 .63.23 1 1 0 0 0 .77-.36 1 1 0 0 0 -.13-1.41z"/></g></svg>